# xmcd CD database file
#
# Track frame offsets:
#	150
#	9317
#	21821
#	31505
#	41492
#	53058
#	67145
#	77180
#	91056
#	100809
#	111628
#	119619
#	134916
#	144726
#	154754
#	163686
#	172868
#	180457
#	189890
#	205183
#	216057
#	227143
#
# Disc length: 3151 seconds
#
# Revision: 0
# Processed by: cddbd v1.5.1PL0 Copyright (c) Steve Scherf et al.
# Submitted via: CDex 1.51
#
DISCID=2a0c4d16
DTITLE=Jim Reeves - The Ultimate Collection Disc4
DYEAR=1900
DGENRE=Country
TTITLE0=I Won't Forget You
TTITLE1=Nobody's Fool
TTITLE2=The Storm
TTITLE3=I Won't Come In Whil He's There
TTITLE4=I Missed Me
TTITLE5=This Is It
TTITLE6=I Heard A Heart Break Last Night
TTITLE7=Auf Wiedersehn Sweetheart
TTITLE8=Is This Me?
TTITLE9=I Guess I'm Crazy
TTITLE10=Trying To Forget
TTITLE11=The Blizzard
TTITLE12=Snow Flake
TTITLE13=Partners
TTITLE14=Home
TTITLE15=Overnight
TTITLE16=Gypsy Feet
TTITLE17=I'm Gonna Change Everything
TTITLE18=Little Old Dime
TTITLE19=Good Morning
TTITLE20=How Can I Write On Paper
TTITLE21=I'd Like To Be
EXTD=
EXTT0=
EXTT1=
EXTT2=
EXTT3=
EXTT4=
EXTT5=
EXTT6=
EXTT7=
EXTT8=
EXTT9=
EXTT10=
EXTT11=
EXTT12=
EXTT13=
EXTT14=
EXTT15=
EXTT16=
EXTT17=
EXTT18=
EXTT19=
EXTT20=
EXTT21=
PLAYORDER=
